<svg xmlns="http://www.w3.org/2000/svg" version="1.1" xmlns:xlink="http://www.w3.org/1999/xlink" xmlns:svgjs="http://svgjs.dev/svgjs" width="1000" height="1125" viewBox="0 0 1000 1125"><g transform="matrix(1,0,0,1,0.000007812499859483069,0)"><svg viewBox="0 0 320 360" data-background-color="#ffffff" preserveAspectRatio="xMidYMid meet" height="1125" width="1000" xmlns="http://www.w3.org/2000/svg" xmlns:xlink="http://www.w3.org/1999/xlink"><g id="tight-bounds" transform="matrix(1,0,0,1,0.0000025000000505315256,0)"><svg viewBox="0 0 320 360" height="360" width="320"><g><svg></svg></g><g><svg viewBox="0 0 320 360" height="360" width="320"><g><path transform="translate(-19.44751,3.1739) scale(3.53591,3.53591)" d="M67.6 10.7c0.2 0 1.8 0.8 2.7 1.1-0.3 0.1-1-0.2-1.8-0.5 0.2 0 0.6 0.1 1 0.3-0.2-0.2-1.7-0.7-1.9-0.9M52.7 7.6c0.3-0.1 3.8 0.4 5.4 0.5 0.1-0.1-0.2-0.1-0.6-0.2 0.5-0.1 1.5 0.2 2.2 0.3-2.1 0.1-4.4-0.5-6.4-0.3-0.7 0-0.2-0.2-0.6-0.3M49.8 7.6c1.8 0 3.2 0 0.6 0.2-0.3-0.1-0.7-0.1-0.6-0.2M78.1 15.9c0.2 0 1 0.9 1.4 1.2-0.1 0.1-0.9-0.7-1.3-1 0.1 0.1 0 0-0.1-0.2M76.1 14.6c-0.8-0.7-1.1-0.7-1.2-1.1 0.7 0.4 1.2 0.8 1.2 1.1M63.2 8.3c0.1-0.1 0.3 0.1 0.8 0.2-0.6-0.1-0.5 0-0.3 0.2-0.7-0.1-0.9-0.2-0.7-0.4 0.4 0.2 0.5 0.1 0.2 0M34.8 9.5c0-0.1 0.4-0.3 0.7-0.4-0.3 0.2-0.2 0.3 0.3 0.1 0 0.1-0.6 0.3-1 0.5 0.2-0.1 0.4-0.4 0-0.2M65.2 7.3c-0.3 0.1-1.4-0.5-2.5-0.7-0.6-0.2 2.4 0.5 2.5 0.7M6.2 56.7c0.6 2.5 0.2 2.4 0 0M6.3 41.7c0.1-0.4 0.2-1.5 0.3-1.4-0.3 2.4-0.8 3.5-0.9 5.3 0.3-1.6-0.1 0.9-0.2 1.5 0.1 0.8 0.1-0.5 0.3-0.3 0.2 0.3-0.4 4.5-0.2 2.2-0.2 2.1 0 4.4 0.4 5-0.5 3.2 2 10.4 2.5 11.9 0.1 0.1 0-0.5 0.2-0.1 0.2 1.3 1.1 2.2 1.4 3.6 0.3 0.4 1.5 2.6 1.7 3.1 0.4 0.8 0.6 0.7 1 1.5 1.2 2.3 3.1 4.5 4.9 6.6 5.8 6.8 14.7 12.4 24.6 14.4 9.9 2.1 20.3 0.6 28.4-3.3 0.5-0.3 0.4-0.4 1-0.6 2.8-0.9 6.2-3.8 8.1-4.9 0.9-1 3.3-2.7 3.6-3.7 1.7-1.4 3.4-3.7 4.3-5.2 0.5-0.8 0.9-0.8 1.1-1.3-0.1 0 1.6-2.1 2.1-3.3-0.2 0-0.5 0.6-0.5 0 3.6-6.9 5.6-16.2 4.5-22.6 0.2 7.9-1.8 16.7-5.6 22.3-1.7 3.6-5.2 7.5-8.4 10.3-0.5 0.5-1 1.1-1.6 1.5-1.9 1.6-4 2.9-6.2 4.1-5.2 2.9-11 5.4-17.8 5.5 11.7-1 22.2-6.9 28-14.1-4.4 4.3-6.3 6-11.2 8.5-0.4 0.7-3.7 2.1-5.9 2.7 1.3-0.6 4-1.6 4.9-2.4-7.3 3.5-15.4 5.5-23 4.4 2.9 0 7 0.1 10.9-0.6 0.6-0.2 0.9-0.4 1.6-0.5 7.6-1.7 14.9-5.4 20.1-10.6-3 2.7-7.5 5.9-10.4 6.9 2.7-1.5 7.6-4.4 9.2-6.6-3.2 3.2-9.2 6.4-13 7.8-0.6 0.1 0.4-0.4-0.6 0-1.2 0.3-0.7 0.3-1 0.5-4.6 1.3-9.9 2.4-14.3 2-0.8-0.1-1.1-0.3-1.8-0.3-0.8-0.1-1.5-0.1-2.4-0.1-3.5-0.4-7.3-1.8-10.1-3-1.5-0.7-3-1.2-4.5-2.1-1.2-0.7-2.2-1.5-3.2-2.3-3.8-2.8-7-5.6-10-9.6-5.4-7.5-8.2-16.9-7.8-26.2 0.4-9.3 4.1-18.4 10-25.1-0.3 0.3 0.4-0.7 1-1.3 0 0.2-0.1 0.5 0.6-0.2 0.6-0.7-0.2-0.2 0.1-0.6 6.2-6.8 17-12.3 28.1-12.5 0.4-0.3 1.1-0.7 1.9-0.5 0 0.1-0.5 0.1-0.5 0.1 1.1-0.1 2.1-0.1 2.6 0.1 0.1-0.1-0.4-0.2 0-0.2 0.7 0.2 0.9 0 1.3 0.2-0.3 0-0.6 0-0.8 0.1 2.5 0 4.1 0.6 6.6 0.8-1.3-0.3-1.6-0.3-2.6-0.6 1.1 0.2 1.6 0.4 2.1 0.3-0.2 0-0.1-0.3 0.1-0.2 2 0.5 2.2 0.7 4.3 1.4 0.2-0.2-0.9-0.3-1.2-0.6 2 0.7 3.8 1.2 5 2-0.4-0.3-1.6-0.7-2.5-1.1-0.1 0.1 0.3 0.2 0.4 0.4-1-0.5-2.4-1-3.8-1.2 1.2 0.3 2 0.7 2.5 0.9-1.1-0.2-2.5-0.9-4.1-1.2 2.6 0.8 7.5 2.6 10.5 4.2-1.1-0.7-2.4-1.2-3.1-1.6 0.6 0.1 1.3 0.5 1.3 0.3 0.7 0.3 1.6 1 2.1 1.1-0.9-0.6-2.7-1.5-3.3-1.8 7.5 3.4 14.2 9.1 18.5 16.4 0.4 0.7 1 2.3 1.5 2.5-0.1-0.5-0.5-0.8-0.9-1.6 0.2 0 0.2-0.3 0-0.6-0.4-0.5 0 0.4-0.4-0.1-1.8-3.3-4-6.2-7.4-9.4 1.9 1.8 0.5 0.5 0.1-0.1 2.6 2.3 5.6 6.2 6.9 8.2-0.2-0.3-0.3-0.5-0.2-0.5 2.4 4.1 3.9 7.8 5.4 13.1 0.1 0.1 0-0.4 0.2-0.1 1 4.2 1.3 7.7 1.2 10.9 0.8-5.4-1-13.8-4.2-20.4-0.4-0.8-0.4-0.2-0.8-1.1 0-0.3-0.3-0.9-0.5-1.3-4-6.6-8.9-11.3-14.7-15 0.4 0.2 1.2 0.8 1.2 0.7-10.8-7.1-23.3-8.1-33.6-5.9-0.7 0.3-1 0.6-1.8 1 1.5-0.5 2.4-0.6 3.8-0.9 0.3-0.3-1.3 0.1-0.6-0.2 0.1 0.1 1.4-0.2 1.7-0.1 0 0.1-0.4 0.2-0.5 0.3 3.3-0.7 6.7-0.8 9.6-0.6-1.7 0.1-4.8-0.2-5.8 0.3 1-0.1 2.4-0.2 3.3-0.1-1.2 0-3.4 0.1-4.4 0.2-0.1-0.1 1.6-0.3 0.5-0.3-0.5 0.1-1.3 0.1-1.6 0.4-8.6 0.8-17 5.3-22.9 10.6-1.2 1-2.6 2.1-3.5 3.2-2.2 2.5-3.6 5-5.2 7.2 1-2.1 3.2-5.3 5.8-8 2.6-2.7 5.4-5 6.9-6.2 0 0.4 2.4-1.5 3.3-2.1-0.6 0.5 0.4-0.2 0.6-0.1 3.2-1.9 5.8-2.6 8.7-3.7-0.7 0.2-1.3 0.4-1.4 0.3 0.7-0.2 1.1-0.4 1-0.5-2.8 0.8-7.2 2.7-10.7 4.8 6.3-4.3 14.3-6.9 22.2-7 7.9-0.2 15.6 1.8 21.7 5 4.1 1.8 8 5.1 11.1 8.3 0.9 0.8 0.2-0.2 1.5 1.2-0.4-0.2-0.7-0.4-0.2 0.2 0.8 0.9-0.2-0.7 1.1 0.9-0.1 0-0.5-0.5-0.5-0.3 3.5 3.1 6.2 8.7 7.8 12.4-0.4-1.5-1.4-3.6-2.2-5.1 2.4 4.4 3.2 7 4.2 10.9 0.4 0.3-0.2-1.4 0.2-0.6 0.1 0.6 0.2 2.5 0.6 2.8-0.3-1.9-0.8-4.2-1.2-4.6 0.3 0.2-0.5-2.3-1-2.9-0.2-1.6-1.6-4.4-2.8-6.5-4.3-8.4-12-15.3-20.6-19.1 0-0.2-0.5-0.4-0.7-0.6-8.5-3.6-18.7-4.6-28.5-2.3-9.9 2.4-19.2 8.1-25.8 16.3 0.3-1 2.8-2.9 2.9-3.7-2.9 3.1-6 7.2-8.1 11.6-2.2 4.4-3.4 8.9-3.9 12.2" fill="#8bd8bc" fill-rule="nonzero" stroke="none" stroke-width="1" stroke-linecap="butt" stroke-linejoin="miter" stroke-miterlimit="10" stroke-dasharray="" stroke-dashoffset="0" font-family="none" font-weight="none" font-size="none" text-anchor="none" style="mix-blend-mode: normal" data-fill-palette-color="tertiary"></path></g><g transform="matrix(1,0,0,1,70.05017035429684,90)"><svg viewBox="0 0 179.89965929140632 180" height="180" width="179.89965929140632"><g><svg viewBox="0 0 224 224.12493808389362" height="180" width="179.89965929140632"><g transform="matrix(1,0,0,1,0,157.64489661162818)"><svg viewBox="0 0 224 66.48004147226544" height="66.48004147226544" width="224"><g id="textblocktransform"><svg viewBox="0 0 224 66.48004147226544" height="66.48004147226544" width="224" id="textblock"><g><svg viewBox="0 0 224 66.48004147226544" height="66.48004147226544" width="224"><g transform="matrix(1,0,0,1,0,0)"><svg width="224" viewBox="-0.04 -32.16 154.29999999999998 45.8" height="66.48004147226544" data-palette-color="#233565"><path d="M14.76 0.56L14.76 0.56Q12.8-1.32 12.8-5.08L12.8-5.08Q12.8-9.28 15.56-13.76L15.56-13.76Q17.08-16.24 19.68-17.84 22.28-19.44 25.36-19.44L25.36-19.44Q26.72-19.44 28.28-18.96L28.28-18.96Q31.32-23.96 33.24-26.2 35.16-28.44 36.56-29.6L36.56-29.6Q39.72-32.16 42.96-32.16L42.96-32.16Q43.6-32.16 43.6-31.52L43.6-31.52Q40.96-25.72 39.54-19.82 38.12-13.92 37.34-8.34 36.56-2.76 36.56 1.12L36.56 1.12Q36.56 1.68 36 1.68L36 1.68Q34.6 1.68 34.6-1.52L34.6-1.52Q34.6-5.56 33.84-8.84L33.84-8.84Q32.44-15.08 28.96-17.08L28.96-17.08Q28.52-16.24 27.3-13.88 26.08-11.52 25.5-10.42 24.92-9.32 23.78-7.34 22.64-5.36 21.84-4.16L21.84-4.16Q19.92-1.28 17.68 0.88L17.68 0.88Q18.08 1 18.64 1L18.64 1Q22 1 24.2-1.22 26.4-3.44 27.24-6.48L27.24-6.48Q27.36-6.92 27.88-6.88L27.88-6.88Q28.2-6.84 28.12-6.56L28.12-6.56Q27.24-3.12 24.78-0.54 22.32 2.04 18.6 2.04L18.6 2.04Q17.76 2.04 16.72 1.76L16.72 1.76Q13.04 4.72 8.88 4.72L8.88 4.72Q3.48 4.72 1.2 0.48L1.2 0.48Q-0.04-1.8-0.04-4.44L-0.04-4.44Q-0.04-5.84 0.32-7.36L0.32-7.36Q1.28-11.48 4.24-13.24L4.24-13.24Q5.72-14.12 7.48-14.12L7.48-14.12Q8.04-14.12 8.4-13.78 8.76-13.44 8.92-12.72L8.92-12.72Q6.56-12.72 4.68-11.04L4.68-11.04Q1.52-8.28 1.52-3.2L1.52-3.2Q1.52-0.12 3.38 1.62 5.24 3.36 8.38 3.36 11.52 3.36 14.76 0.56ZM25.32-18L25.32-18Q21.96-18 19.28-15.8 16.6-13.6 15.36-10.66 14.12-7.72 14.12-4.72 14.12-1.72 15.64-0.16L15.64-0.16Q17.16-1.6 18.88-3.94 20.6-6.28 21.6-7.88 22.6-9.48 24.72-13.08 26.84-16.68 27.48-17.72L27.48-17.72Q26.52-18 25.32-18ZM40.88-30.6L40.88-30.6Q37.68-29.76 35.04-26.64 32.4-23.52 29.64-18.36L29.64-18.36Q33.52-16.24 35.08-9.88L35.08-9.88Q35.8-16.68 37.42-22.38 39.04-28.08 40.88-30.6ZM45.64 0L45.64 0Q42.36 0 42.36-5.16L42.36-5.16Q42.36-8.24 43.88-11.92L43.88-11.92Q46-17.08 49.44-18.96L49.44-18.96Q50.92-19.76 52.2-19.76 53.48-19.76 54.22-19.2 54.96-18.64 55.16-18.08L55.16-18.08 55.4-17.56Q55.28-16.88 54.72-16.88L54.72-16.88Q54.08-16.88 53.98-17.18 53.88-17.48 53.76-17.7 53.64-17.92 53.2-18.3 52.76-18.68 52.2-18.68L52.2-18.68Q49.6-18.68 47.48-14L47.48-14Q45.08-8.6 45.08-3.84L45.08-3.84Q45.08-1.44 46.04-1.44L46.04-1.44Q47.12-1.44 49.5-4.96 51.88-8.48 53.72-12L53.72-12 55.6-15.52Q56.8-17.96 58.12-17.96L58.12-17.96Q58.96-17.96 58.96-17L58.96-17Q58.44-15.88 57.52-12.7 56.6-9.52 56-6.78 55.4-4.04 54.9-0.04 54.4 3.96 54.4 8.12 54.4 12.28 55.88 12.28L55.88 12.28Q56.32 12.28 56.78 11.9 57.24 11.52 57.38 11.52 57.52 11.52 57.6 11.62 57.68 11.72 57.62 11.92 57.56 12.12 57.38 12.4 57.2 12.68 56.64 13.16 56.08 13.64 55.56 13.64L55.56 13.64Q52.2 13.64 52.2 5.88L52.2 5.88Q52.2-0.92 53.64-8.68L53.64-8.68 53.28-8.68Q48.2 0 45.64 0ZM75.48 3L75.48 3Q75.96 3 76.38 2.58 76.8 2.16 77.16 1.28L77.16 1.28Q77.2 0.92 77.64 0.92 78.08 0.92 77.98 1.28 77.88 1.64 77.66 2.16 77.44 2.68 76.74 3.54 76.04 4.4 75.32 4.4L75.32 4.4Q73.72 4.4 72.84 2.4L72.84 2.4Q71.92 0.4 71.92-2.54 71.92-5.48 72.36-8.6L72.36-8.6 72-8.6Q67.16-0.16 64.56-0.16L64.56-0.16Q61.48-0.16 61.48-4.86 61.48-9.56 63.48-14.24L63.48-14.24Q65.68-19.4 67.36-19.4L67.36-19.4Q68.08-19.4 68.08-18.52L68.08-18.52Q66.4-14.08 65.2-9.88 64-5.68 64-3.62 64-1.56 64.96-1.56L64.96-1.56Q65.64-1.56 66.98-3.2 68.32-4.84 69.72-7.2L69.72-7.2Q72.72-12.28 74.3-15.84 75.88-19.4 77.56-19.4L77.56-19.4Q78.36-19.4 78.36-18.52L78.36-18.52Q75.8-13.44 74.72-6.4L74.72-6.4Q74.28-3.6 74.28-0.92L74.28-0.92Q74.28 3 75.48 3ZM83.83 0L83.83 0Q80.55 0 80.55-5.16L80.55-5.16Q80.55-8.24 82.07-11.92L82.07-11.92Q84.19-17.08 87.63-18.96L87.63-18.96Q89.11-19.76 90.39-19.76 91.67-19.76 92.41-19.2 93.15-18.64 93.35-18.08L93.35-18.08 93.59-17.56Q93.47-16.88 92.91-16.88L92.91-16.88Q92.27-16.88 92.17-17.18 92.07-17.48 91.95-17.7 91.83-17.92 91.39-18.3 90.95-18.68 90.39-18.68L90.39-18.68Q87.79-18.68 85.67-14L85.67-14Q83.27-8.6 83.27-3.84L83.27-3.84Q83.27-1.44 84.23-1.44L84.23-1.44Q84.99-1.44 86.37-3.14 87.75-4.84 89.27-7.4L89.27-7.4Q91.91-11.8 93.55-15.04L93.55-15.04Q94.91-17.92 96.35-17.92L96.35-17.92Q97.11-17.92 97.11-17L97.11-17Q96.75-16.24 96.19-14.84 95.63-13.44 94.71-9.28 93.79-5.12 93.79-1 93.79 3.12 95.03 3.12L95.03 3.12Q95.51 3.12 95.91 2.7 96.31 2.28 96.63 1.44L96.63 1.44Q96.75 1 97.19 1L97.19 1Q97.35 1 97.43 1.12 97.51 1.24 97.43 1.52 97.35 1.8 97.15 2.3 96.95 2.8 96.29 3.64 95.63 4.48 94.91 4.48L94.91 4.48Q93.23 4.48 92.33 2.28 91.43 0.08 91.43-2.92 91.43-5.92 91.87-8.68L91.87-8.68 91.47-8.68Q86.39 0 83.83 0ZM105.47 5.84L105.47 5.84Q103.15 5.84 102.05 3.4 100.95 0.96 100.95-3.92 100.95-8.8 102.39-15.48 103.83-22.16 105.77-26.56 107.71-30.96 109.15-30.96L109.15-30.96Q109.83-30.96 109.83-30.16L109.83-30.16Q108.99-28.24 107.71-24.38 106.43-20.52 105.57-17.24 104.71-13.96 104.01-9.56 103.31-5.16 103.31-2.02 103.31 1.12 103.93 2.82 104.55 4.52 105.63 4.52L105.63 4.52Q106.55 4.52 107.39 3.66 108.23 2.8 108.59 1.96L108.59 1.96Q108.79 1.52 109.31 1.72L109.31 1.72Q109.51 1.8 109.41 2.06 109.31 2.32 109.09 2.72 108.87 3.12 108.31 3.96L108.31 3.96Q107.11 5.84 105.47 5.84ZM111.15-3.4L111.15-3.4Q111.15-9.32 112.37-13.96 113.59-18.6 115.47-18.6L115.47-18.6Q116.39-18.6 116.39-17.6L116.39-17.6Q115.99-16.56 115.39-14.84 114.79-13.12 113.81-8.62 112.83-4.12 112.83-0.6L112.83-0.6Q112.83-0.04 112.23-0.04L112.23-0.04Q111.15-0.04 111.15-3.4ZM116.99-23.04L116.51-22.36Q115.67-22.36 115.67-23.96L115.67-23.96Q115.67-24.92 116.19-25.98 116.71-27.04 117.67-27.04L117.67-27.04Q118.47-27.04 118.47-26.12L118.47-26.12Q118.47-25.2 116.99-23.04L116.99-23.04ZM121.55-6.48L121.91-6.48Q127.07-19.24 131.95-19.24L131.95-19.24Q133.99-19.24 133.99-17.28L133.99-17.28Q133.71-16.36 133.27-14.86 132.83-13.36 132.09-9.48 131.35-5.6 131.35-2.68L131.35-2.68Q131.35 1.56 132.59 1.56L132.59 1.56Q133.07 1.56 133.51 1.18 133.95 0.8 134.11 0.8L134.11 0.8Q134.67 0.8 134.11 1.68L134.11 1.68Q133.91 1.96 133.37 2.44 132.83 2.92 132.27 2.92L132.27 2.92Q130.75 2.92 129.89 0.74 129.03-1.44 129.03-4.92L129.03-4.92Q129.03-10.44 130.75-17.04L130.75-17.04Q130.91-17.56 130.43-17.56L130.43-17.56Q130.11-17.56 129.71-17.24L129.71-17.24Q127.79-15.56 125.67-11.68 123.55-7.8 122.35-4.74 121.15-1.68 121.15-1.18 121.15-0.68 120.59-0.68L120.59-0.68Q119.31-0.68 119.31-3.84L119.31-3.84Q119.31-9.8 120.53-14.64 121.75-19.48 123.47-19.48L123.47-19.48Q124.19-19.48 124.19-18.6L124.19-18.6Q122.35-12.64 121.55-6.48L121.55-6.48ZM149.06-12.44L149.06-12.44Q150.38-14.56 150.38-16.42 150.38-18.28 149.22-18.28L149.22-18.28Q147.82-18.28 146.04-15.82 144.26-13.36 142.88-10.24 141.5-7.12 140.54-4.46 139.58-1.8 139.58-1.24L139.58-1.24Q139.54-0.76 139.02-0.76L139.02-0.76Q137.82-0.76 137.82-3.96L137.82-3.96Q137.82-10.32 139.1-16.74 140.38-23.16 142.14-27.02 143.9-30.88 145.42-30.88L145.42-30.88Q146.06-30.88 146.06-30.24L146.06-30.24Q143.94-25.56 142.38-18.84L142.38-18.84Q141.1-13.64 140.22-7.68L140.22-7.68 140.54-7.68Q145.1-19.4 149.66-19.4L149.66-19.4Q152.5-19.4 152.5-16.16L152.5-16.16Q152.5-14.08 150.96-11.76 149.42-9.44 147.06-8.68L147.06-8.68Q147.54-8.24 149.02-3.2L149.02-3.2Q149.54-1.4 150.46 0.08 151.38 1.56 152.44 1.56 153.5 1.56 154.02 0.8L154.02 0.8Q154.26 0.8 154.26 1 154.26 1.2 154.06 1.6L154.06 1.6Q153.18 2.8 151.9 2.92L151.9 2.92Q150.26 2.92 148.82 1.24 147.38-0.44 146.58-2.44 145.78-4.44 145.08-6.42 144.38-8.4 144.22-8.64L144.22-8.64Q143.94-8.84 143.86-9.12L143.86-9.12Q147.02-9.12 149.06-12.44Z" opacity="1" transform="matrix(1,0,0,1,0,0)" fill="#233565" class="wordmark-text-0" data-fill-palette-color="primary" id="text-0"></path></svg></g></svg></g></svg></g></svg></g><g transform="matrix(1,0,0,1,48.87189396479244,0)"><svg viewBox="0 0 126.25621207041512 126.25621207041512" height="126.25621207041512" width="126.25621207041512"><g><svg></svg></g><g id="icon-0"><svg viewBox="0 0 126.25621207041512 126.25621207041512" height="126.25621207041512" width="126.25621207041512"><g><path d="M0 63.128c0-34.865 28.263-63.128 63.128-63.128 34.865 0 63.128 28.263 63.128 63.128 0 34.865-28.263 63.128-63.128 63.128-34.865 0-63.128-28.263-63.128-63.128zM63.128 120.261c31.554 0 57.133-25.579 57.133-57.133 0-31.554-25.579-57.133-57.133-57.133-31.554 0-57.133 25.579-57.133 57.133 0 31.554 25.579 57.133 57.133 57.133z" data-fill-palette-color="accent" fill="#8bd8bc" stroke="transparent"></path><ellipse rx="62.496824974855485" ry="62.496824974855485" cx="63.12810603520756" cy="63.12810603520756" fill="#8bd8bc" stroke="transparent" stroke-width="0" fill-opacity="1" data-fill-palette-color="accent"></ellipse></g><g transform="matrix(1,0,0,1,28.882479244690728,46.904555374362126)"><svg viewBox="0 0 68.49125358103366 32.447101321690866" height="32.447101321690866" width="68.49125358103366"><g><svg xmlns="http://www.w3.org/2000/svg" xmlns:xlink="http://www.w3.org/1999/xlink" version="1.1" x="0" y="0" viewBox="4.995640625233051 28.67889971222529 90.00398927548014 42.638561957735575" enable-background="new 0 0 100 100" xml:space="preserve" height="32.447101321690866" width="68.49125358103366" class="icon-z$-0" data-fill-palette-color="quaternary" id="z$-0"><g fill="#ffffff" data-fill-palette-color="quaternary"><path d="M53.819 45.873c-0.01 0.018 0.028 0.001 0.159-0.114-0.008 0.004-0.015 0.008-0.023 0.013C53.911 45.805 53.865 45.839 53.819 45.873z" fill="#ffffff" data-fill-palette-color="quaternary"></path><path d="M94.943 46.752c-0.819-1.952-2.029-3.815-3.315-5.492-1.155-1.506-2.472-2.887-3.944-4.086-2.956-2.408-6.463-4.011-10.151-4.933-1.206-0.301-2.425-0.537-3.653-0.725-0.6-0.307-1.213-0.59-1.836-0.849-2.748-1.143-5.628-1.676-8.587-1.886-2.838-0.202-5.729-0.134-8.518 0.475-3.556 0.777-6.678 2.588-9.031 5.224-0.033-0.094-0.118-0.166-0.274-0.194-2.185-0.386-4.538 0.126-6.216 1.629-1.583 1.418-2.428 3.421-2.656 5.505-0.449 4.119 1.656 8.662 5.455 10.523 1.134 0.555 2.387 0.858 3.646 0.906-1.483 0.338-2.997 0.343-4.546-0.02-1.929-0.452-4.152-1.584-4.964-3.506-0.512-1.213-0.334-2.548 0.168-3.733 0.319-0.753-0.689-0.656-0.944-0.131-1.138 2.347-1.036 4.997 0.89 6.896 1.857 1.831 4.678 2.507 7.218 2.445 1.451-0.035 3.019-0.351 4.229-1.19 0.296-0.205 0.633-0.535 0.613-0.926 0.81-0.145 1.592-0.393 2.246-0.793 0.361-0.221 0.751-0.652 0.725-1.112-0.003-0.048-0.01-0.093-0.021-0.136 0.217-0.235 0.366-0.54 0.447-0.886-0.07 0.301 0.033-0.105 0.041-0.136 0.042-0.16 0.091-0.345 0.123-0.516 0.04-0.206 0.072-0.414 0.112-0.62 0.017-0.088 0.035-0.177 0.052-0.265 0.008-0.032 0.017-0.064 0.024-0.086 0.067-0.198 0.128-0.397 0.208-0.591 0.064-0.154 0.306-0.58 0.087-0.217 0.093-0.154 0.181-0.309 0.282-0.457 0.1-0.145 0.219-0.277 0.319-0.422 0.002-0.002 0.002-0.004 0.004-0.006 0.067-0.064 0.13-0.133 0.198-0.196 0.126-0.119 0.258-0.232 0.394-0.339 0.015-0.012 0.032-0.023 0.048-0.034 0.008-0.015 0.048-0.052 0.094-0.078 0.014-0.008 0.028-0.016 0.042-0.023 0.022-0.017 0.045-0.032 0.065-0.051-0.015 0.014-0.029 0.026-0.043 0.038 0.316-0.175 0.625-0.343 0.957-0.492 0.044-0.02 0.073-0.034 0.096-0.045 0.025-0.006 0.057-0.015 0.105-0.028 0.171-0.048 0.341-0.1 0.514-0.141 0.174-0.041 0.35-0.076 0.526-0.105 0.106-0.018 0.214-0.028 0.32-0.046 0.004-0.001 0.006-0.001 0.01-0.002 0.007 0 0.012 0 0.021 0 0.365-0.005 0.725-0.027 1.091-0.005 0.183 0.011 0.364 0.038 0.547 0.051 0.013 0.001 0.022 0.001 0.033 0.002 0.006 0.001 0.01 0.002 0.017 0.004 0.108 0.023 0.217 0.041 0.325 0.064 0.36 0.079 0.715 0.181 1.062 0.307 0.069 0.025 0.394 0.163 0.385 0.153 0.16 0.077 0.319 0.158 0.474 0.246 0.324 0.185 0.626 0.399 0.923 0.623 0.06 0.046 0.328 0.301 0.048 0.035 0.054 0.052 0.113 0.099 0.165 0.153 0.16 0.162 0.32 0.321 0.469 0.493 0.125 0.145 0.241 0.297 0.356 0.45 0.003 0.004 0.051 0.074 0.089 0.127 0.036 0.057 0.082 0.13 0.085 0.134 0.22 0.389 0.404 0.79 0.559 1.209-0.001-0.004 0.035 0.107 0.06 0.179 0.02 0.075 0.055 0.198 0.054 0.192 0.053 0.214 0.096 0.431 0.131 0.649 0.09 0.558 0.133 1.13 0.124 1.694-0.013 0.876-0.115 1.698-0.314 2.495-2.571 2.018-5.467 3.328-8.67 4.003-3.318 0.699-6.677 0.84-10.057 0.882-8.082 0.101-16.145-0.421-24.22-0.628-4.857-0.124-9.782-0.179-14.615 0.374-0.889 0.102-0.862 1.614 0.07 1.59 4.381-0.113 8.748-0.151 13.129 0.021 4.388 0.172 8.772 0.438 13.161 0.606 3.899 0.149 7.804 0.221 11.706 0.192 1.478-0.011 2.969-0.055 4.456-0.159-6.816 1.465-13.796 2.221-20.751 2.844-2.366 0.212-4.73 0.442-7.098 0.621-0.667 0.051-1.111 1.202-0.239 1.201 5.768-0.009 11.514-0.346 17.245-1.002 4.202-0.48 8.393-1.103 12.521-2.034 3.613-0.814 7.284-1.83 10.573-3.573 0.032-0.017 0.064-0.035 0.096-0.052-0.468 0.521-0.976 1.014-1.515 1.482-3.091 2.682-6.91 4.315-10.774 5.736-2.283 0.84-4.794 1.6-7.236 2.169-1.029 0.24-2.269 0.481-3.205 0.577-0.486 0.05-0.977 0.073-1.465 0.065-0.349-0.006-0.671-0.045-1.004 0.111-0.155 0.073-0.301 0.173-0.456 0.248-0.416 0.203-0.604 0.778-0.288 1.148 0.359 0.421 0.704 0.651 1.272 0.703 0.472 0.044 0.948 0.045 1.422 0.029 1.136-0.039 2.271-0.18 3.391-0.368 2.494-0.417 4.944-1.115 7.345-1.899 4.473-1.462 8.846-3.205 12.514-6.228 2.129-1.755 3.951-3.941 5.001-6.511 0.988-2.419 1.338-5.368 0.661-7.915-1.046-3.938-4.616-6.504-8.65-6.597-1.305-0.03-2.618 0.203-3.819 0.701 0.112-0.094 0.224-0.188 0.34-0.279 0.035-0.028 0.072-0.054 0.108-0.08 0.031-0.019 0.186-0.127 0.207-0.141 0.143-0.094 0.287-0.184 0.433-0.273 0.37-0.224 0.749-0.43 1.138-0.618-0.016 0.008 0.126-0.058 0.198-0.092 0.074-0.031 0.219-0.094 0.202-0.087 0.183-0.076 0.368-0.148 0.554-0.217 0.416-0.154 0.839-0.29 1.266-0.409 0.807-0.224 1.483-0.352 2.387-0.454 1.641-0.185 3.182-0.154 4.809 0.141 3.131 0.567 5.705 2.383 7.321 5.172 1.765 3.047 2.078 6.724 1.211 10.102-1.215 4.732-4.612 8.574-8.688 11.123-0.492 0.308-0.345 1.087 0.267 0.737 4.133-2.365 7.668-5.909 9.399-10.405 1.413-3.67 1.64-7.841 0.154-11.53-1.386-3.441-4.072-6.066-7.635-7.126-3.531-1.05-7.578-0.751-10.992 0.588-2.098 0.822-4.001 2.053-5.476 3.771-1.382 1.611-2.478 3.844-2.222 6.006 0.032 0.27 0.131 0.442 0.269 0.541-0.001 0.188 0.01 0.376 0.031 0.562-1.552-0.803-2.874-2.052-3.632-3.642-1.054-2.209-1.001-4.606 0.106-6.788 1.865-3.675 4.896-6.223 8.851-7.288 2.408-0.648 4.914-0.78 7.396-0.685 2.686 0.103 5.327 0.455 7.878 1.328 4.562 1.561 8.746 4.71 11.256 8.86 1.346 2.226 2.223 4.71 2.446 7.306 0.108 1.264 0.049 2.518-0.162 3.771-0.232 1.382-0.718 2.683-1.108 4.025-0.157 0.542-0.074 1.135 0.509 1.376 0.531 0.219 1.236-0.001 1.546-0.501 1.518-2.446 1.99-5.514 1.896-8.358-0.086-2.573-0.785-5.147-1.937-7.446-1.396-2.788-3.397-5.186-5.784-7.128 0.923 0.335 1.831 0.712 2.719 1.137 3.259 1.561 6.129 3.813 8.398 6.627 1.444 1.792 2.507 3.761 3.636 5.753C93.575 48.877 95.336 47.689 94.943 46.752zM52.244 48.271C52.228 48.343 52.232 48.32 52.244 48.271L52.244 48.271zM43.761 37.493c-1.56 2.782-2.187 6.097-0.78 9.093 0.868 1.848 2.317 3.293 4.067 4.225-0.849 0.014-1.944-0.154-2.728-0.446-1.794-0.668-3.146-1.882-4.165-3.509-0.908-1.45-1.424-3.308-1.475-5.036-0.027-0.926 0.037-1.574 0.289-2.463 0.131-0.462 0.162-0.551 0.379-0.996 0.235-0.481 0.274-0.541 0.565-0.915 0.46-0.59 1.142-1.143 1.881-1.474 1.06-0.474 2.258-0.611 3.409-0.647C44.674 36.002 44.191 36.725 43.761 37.493z" fill="#ffffff" data-fill-palette-color="quaternary"></path></g></svg></g></svg></g></svg></g></svg></g><g></g></svg></g></svg></g></svg></g><defs></defs></svg><rect width="320" height="360" fill="none" stroke="none" visibility="hidden"></rect></g></svg></g></svg>